<mxfile host="app.diagrams.net" agent="Mozilla/5.0 (Windows NT 10.0; Win64; x64) AppleWebKit/537.36 (KHTML, like Gecko) Chrome/131.0.0.0 Safari/537.36" version="25.0.3">
  <diagram id="C5RBs43oDa-KdzZeNtuy" name="Page-1">
    <mxGraphModel grid="1" page="1" gridSize="10" guides="1" tooltips="1" connect="1" arrows="1" fold="1" pageScale="1" pageWidth="827" pageHeight="1169" math="0" shadow="0">
      <root>
        <mxCell id="WIyWlLk6GJQsqaUBKTNV-0" />
        <mxCell id="WIyWlLk6GJQsqaUBKTNV-1" parent="WIyWlLk6GJQsqaUBKTNV-0" />
        <mxCell id="wH7noNQ4ZhhsF74bomil-0" value="SocialMediaPlatform" style="swimlane;fontStyle=1;align=center;verticalAlign=top;childLayout=stackLayout;horizontal=1;startSize=25.454545454545453;horizontalStack=0;resizeParent=1;resizeParentMax=0;resizeLast=0;collapsible=0;marginBottom=0;" vertex="1" parent="WIyWlLk6GJQsqaUBKTNV-1">
          <mxGeometry x="454" y="20" width="167" height="283.45454545454544" as="geometry" />
        </mxCell>
        <mxCell id="wH7noNQ4ZhhsF74bomil-1" value="+platformID: String" style="text;strokeColor=none;fillColor=none;align=left;verticalAlign=top;spacingLeft=4;spacingRight=4;overflow=hidden;rotatable=0;points=[[0,0.5],[1,0.5]];portConstraint=eastwest;" vertex="1" parent="wH7noNQ4ZhhsF74bomil-0">
          <mxGeometry y="25.454545454545453" width="167" height="25" as="geometry" />
        </mxCell>
        <mxCell id="wH7noNQ4ZhhsF74bomil-2" value="+users: List" style="text;strokeColor=none;fillColor=none;align=left;verticalAlign=top;spacingLeft=4;spacingRight=4;overflow=hidden;rotatable=0;points=[[0,0.5],[1,0.5]];portConstraint=eastwest;" vertex="1" parent="wH7noNQ4ZhhsF74bomil-0">
          <mxGeometry y="50.45454545454545" width="167" height="25" as="geometry" />
        </mxCell>
        <mxCell id="wH7noNQ4ZhhsF74bomil-3" value="+posts: List" style="text;strokeColor=none;fillColor=none;align=left;verticalAlign=top;spacingLeft=4;spacingRight=4;overflow=hidden;rotatable=0;points=[[0,0.5],[1,0.5]];portConstraint=eastwest;" vertex="1" parent="wH7noNQ4ZhhsF74bomil-0">
          <mxGeometry y="75.45454545454545" width="167" height="25" as="geometry" />
        </mxCell>
        <mxCell id="wH7noNQ4ZhhsF74bomil-4" value="+messages: List" style="text;strokeColor=none;fillColor=none;align=left;verticalAlign=top;spacingLeft=4;spacingRight=4;overflow=hidden;rotatable=0;points=[[0,0.5],[1,0.5]];portConstraint=eastwest;" vertex="1" parent="wH7noNQ4ZhhsF74bomil-0">
          <mxGeometry y="100.45454545454545" width="167" height="25" as="geometry" />
        </mxCell>
        <mxCell id="wH7noNQ4ZhhsF74bomil-5" value="+notifications: List" style="text;strokeColor=none;fillColor=none;align=left;verticalAlign=top;spacingLeft=4;spacingRight=4;overflow=hidden;rotatable=0;points=[[0,0.5],[1,0.5]];portConstraint=eastwest;" vertex="1" parent="wH7noNQ4ZhhsF74bomil-0">
          <mxGeometry y="125.45454545454545" width="167" height="25" as="geometry" />
        </mxCell>
        <mxCell id="wH7noNQ4ZhhsF74bomil-6" style="line;strokeWidth=1;fillColor=none;align=left;verticalAlign=middle;spacingTop=-1;spacingLeft=3;spacingRight=3;rotatable=0;labelPosition=right;points=[];portConstraint=eastwest;strokeColor=inherit;" vertex="1" parent="wH7noNQ4ZhhsF74bomil-0">
          <mxGeometry y="150.45454545454544" width="167" height="8" as="geometry" />
        </mxCell>
        <mxCell id="wH7noNQ4ZhhsF74bomil-7" value="+registerUser()" style="text;strokeColor=none;fillColor=none;align=left;verticalAlign=top;spacingLeft=4;spacingRight=4;overflow=hidden;rotatable=0;points=[[0,0.5],[1,0.5]];portConstraint=eastwest;" vertex="1" parent="wH7noNQ4ZhhsF74bomil-0">
          <mxGeometry y="158.45454545454544" width="167" height="25" as="geometry" />
        </mxCell>
        <mxCell id="wH7noNQ4ZhhsF74bomil-8" value="+loginUser()" style="text;strokeColor=none;fillColor=none;align=left;verticalAlign=top;spacingLeft=4;spacingRight=4;overflow=hidden;rotatable=0;points=[[0,0.5],[1,0.5]];portConstraint=eastwest;" vertex="1" parent="wH7noNQ4ZhhsF74bomil-0">
          <mxGeometry y="183.45454545454544" width="167" height="25" as="geometry" />
        </mxCell>
        <mxCell id="wH7noNQ4ZhhsF74bomil-9" value="+managePosts()" style="text;strokeColor=none;fillColor=none;align=left;verticalAlign=top;spacingLeft=4;spacingRight=4;overflow=hidden;rotatable=0;points=[[0,0.5],[1,0.5]];portConstraint=eastwest;" vertex="1" parent="wH7noNQ4ZhhsF74bomil-0">
          <mxGeometry y="208.45454545454544" width="167" height="25" as="geometry" />
        </mxCell>
        <mxCell id="wH7noNQ4ZhhsF74bomil-10" value="+sendMessage()" style="text;strokeColor=none;fillColor=none;align=left;verticalAlign=top;spacingLeft=4;spacingRight=4;overflow=hidden;rotatable=0;points=[[0,0.5],[1,0.5]];portConstraint=eastwest;" vertex="1" parent="wH7noNQ4ZhhsF74bomil-0">
          <mxGeometry y="233.45454545454544" width="167" height="25" as="geometry" />
        </mxCell>
        <mxCell id="wH7noNQ4ZhhsF74bomil-11" value="+generateReport()" style="text;strokeColor=none;fillColor=none;align=left;verticalAlign=top;spacingLeft=4;spacingRight=4;overflow=hidden;rotatable=0;points=[[0,0.5],[1,0.5]];portConstraint=eastwest;" vertex="1" parent="wH7noNQ4ZhhsF74bomil-0">
          <mxGeometry y="258.45454545454544" width="167" height="25" as="geometry" />
        </mxCell>
        <mxCell id="wH7noNQ4ZhhsF74bomil-12" value="User" style="swimlane;fontStyle=1;align=center;verticalAlign=top;childLayout=stackLayout;horizontal=1;startSize=25.454545454545453;horizontalStack=0;resizeParent=1;resizeParentMax=0;resizeLast=0;collapsible=0;marginBottom=0;" vertex="1" parent="WIyWlLk6GJQsqaUBKTNV-1">
          <mxGeometry x="813" y="665" width="184" height="283.45454545454544" as="geometry" />
        </mxCell>
        <mxCell id="wH7noNQ4ZhhsF74bomil-13" value="+userID: String" style="text;strokeColor=none;fillColor=none;align=left;verticalAlign=top;spacingLeft=4;spacingRight=4;overflow=hidden;rotatable=0;points=[[0,0.5],[1,0.5]];portConstraint=eastwest;" vertex="1" parent="wH7noNQ4ZhhsF74bomil-12">
          <mxGeometry y="25.454545454545453" width="184" height="25" as="geometry" />
        </mxCell>
        <mxCell id="wH7noNQ4ZhhsF74bomil-14" value="+username: String" style="text;strokeColor=none;fillColor=none;align=left;verticalAlign=top;spacingLeft=4;spacingRight=4;overflow=hidden;rotatable=0;points=[[0,0.5],[1,0.5]];portConstraint=eastwest;" vertex="1" parent="wH7noNQ4ZhhsF74bomil-12">
          <mxGeometry y="50.45454545454545" width="184" height="25" as="geometry" />
        </mxCell>
        <mxCell id="wH7noNQ4ZhhsF74bomil-15" value="+email: String" style="text;strokeColor=none;fillColor=none;align=left;verticalAlign=top;spacingLeft=4;spacingRight=4;overflow=hidden;rotatable=0;points=[[0,0.5],[1,0.5]];portConstraint=eastwest;" vertex="1" parent="wH7noNQ4ZhhsF74bomil-12">
          <mxGeometry y="75.45454545454545" width="184" height="25" as="geometry" />
        </mxCell>
        <mxCell id="wH7noNQ4ZhhsF74bomil-16" value="+profilePicture: String" style="text;strokeColor=none;fillColor=none;align=left;verticalAlign=top;spacingLeft=4;spacingRight=4;overflow=hidden;rotatable=0;points=[[0,0.5],[1,0.5]];portConstraint=eastwest;" vertex="1" parent="wH7noNQ4ZhhsF74bomil-12">
          <mxGeometry y="100.45454545454545" width="184" height="25" as="geometry" />
        </mxCell>
        <mxCell id="wH7noNQ4ZhhsF74bomil-17" value="+bio: String" style="text;strokeColor=none;fillColor=none;align=left;verticalAlign=top;spacingLeft=4;spacingRight=4;overflow=hidden;rotatable=0;points=[[0,0.5],[1,0.5]];portConstraint=eastwest;" vertex="1" parent="wH7noNQ4ZhhsF74bomil-12">
          <mxGeometry y="125.45454545454545" width="184" height="25" as="geometry" />
        </mxCell>
        <mxCell id="wH7noNQ4ZhhsF74bomil-18" value="+registrationDate: Date" style="text;strokeColor=none;fillColor=none;align=left;verticalAlign=top;spacingLeft=4;spacingRight=4;overflow=hidden;rotatable=0;points=[[0,0.5],[1,0.5]];portConstraint=eastwest;" vertex="1" parent="wH7noNQ4ZhhsF74bomil-12">
          <mxGeometry y="150.45454545454544" width="184" height="25" as="geometry" />
        </mxCell>
        <mxCell id="wH7noNQ4ZhhsF74bomil-19" style="line;strokeWidth=1;fillColor=none;align=left;verticalAlign=middle;spacingTop=-1;spacingLeft=3;spacingRight=3;rotatable=0;labelPosition=right;points=[];portConstraint=eastwest;strokeColor=inherit;" vertex="1" parent="wH7noNQ4ZhhsF74bomil-12">
          <mxGeometry y="175.45454545454544" width="184" height="8" as="geometry" />
        </mxCell>
        <mxCell id="wH7noNQ4ZhhsF74bomil-20" value="+register()" style="text;strokeColor=none;fillColor=none;align=left;verticalAlign=top;spacingLeft=4;spacingRight=4;overflow=hidden;rotatable=0;points=[[0,0.5],[1,0.5]];portConstraint=eastwest;" vertex="1" parent="wH7noNQ4ZhhsF74bomil-12">
          <mxGeometry y="183.45454545454544" width="184" height="25" as="geometry" />
        </mxCell>
        <mxCell id="wH7noNQ4ZhhsF74bomil-21" value="+login()" style="text;strokeColor=none;fillColor=none;align=left;verticalAlign=top;spacingLeft=4;spacingRight=4;overflow=hidden;rotatable=0;points=[[0,0.5],[1,0.5]];portConstraint=eastwest;" vertex="1" parent="wH7noNQ4ZhhsF74bomil-12">
          <mxGeometry y="208.45454545454544" width="184" height="25" as="geometry" />
        </mxCell>
        <mxCell id="wH7noNQ4ZhhsF74bomil-22" value="+updateProfile()" style="text;strokeColor=none;fillColor=none;align=left;verticalAlign=top;spacingLeft=4;spacingRight=4;overflow=hidden;rotatable=0;points=[[0,0.5],[1,0.5]];portConstraint=eastwest;" vertex="1" parent="wH7noNQ4ZhhsF74bomil-12">
          <mxGeometry y="233.45454545454544" width="184" height="25" as="geometry" />
        </mxCell>
        <mxCell id="wH7noNQ4ZhhsF74bomil-23" value="+viewFeed()" style="text;strokeColor=none;fillColor=none;align=left;verticalAlign=top;spacingLeft=4;spacingRight=4;overflow=hidden;rotatable=0;points=[[0,0.5],[1,0.5]];portConstraint=eastwest;" vertex="1" parent="wH7noNQ4ZhhsF74bomil-12">
          <mxGeometry y="258.45454545454544" width="184" height="25" as="geometry" />
        </mxCell>
        <mxCell id="wH7noNQ4ZhhsF74bomil-24" value="Admin" style="swimlane;fontStyle=1;align=center;verticalAlign=top;childLayout=stackLayout;horizontal=1;startSize=26.375;horizontalStack=0;resizeParent=1;resizeParentMax=0;resizeLast=0;collapsible=0;marginBottom=0;" vertex="1" parent="WIyWlLk6GJQsqaUBKTNV-1">
          <mxGeometry x="1039" y="1045" width="162" height="216.375" as="geometry" />
        </mxCell>
        <mxCell id="wH7noNQ4ZhhsF74bomil-25" value="+adminID: String" style="text;strokeColor=none;fillColor=none;align=left;verticalAlign=top;spacingLeft=4;spacingRight=4;overflow=hidden;rotatable=0;points=[[0,0.5],[1,0.5]];portConstraint=eastwest;" vertex="1" parent="wH7noNQ4ZhhsF74bomil-24">
          <mxGeometry y="26.375" width="162" height="26" as="geometry" />
        </mxCell>
        <mxCell id="wH7noNQ4ZhhsF74bomil-26" value="+name: String" style="text;strokeColor=none;fillColor=none;align=left;verticalAlign=top;spacingLeft=4;spacingRight=4;overflow=hidden;rotatable=0;points=[[0,0.5],[1,0.5]];portConstraint=eastwest;" vertex="1" parent="wH7noNQ4ZhhsF74bomil-24">
          <mxGeometry y="52.375" width="162" height="26" as="geometry" />
        </mxCell>
        <mxCell id="wH7noNQ4ZhhsF74bomil-27" value="+email: String" style="text;strokeColor=none;fillColor=none;align=left;verticalAlign=top;spacingLeft=4;spacingRight=4;overflow=hidden;rotatable=0;points=[[0,0.5],[1,0.5]];portConstraint=eastwest;" vertex="1" parent="wH7noNQ4ZhhsF74bomil-24">
          <mxGeometry y="78.375" width="162" height="26" as="geometry" />
        </mxCell>
        <mxCell id="wH7noNQ4ZhhsF74bomil-28" value="+role: String" style="text;strokeColor=none;fillColor=none;align=left;verticalAlign=top;spacingLeft=4;spacingRight=4;overflow=hidden;rotatable=0;points=[[0,0.5],[1,0.5]];portConstraint=eastwest;" vertex="1" parent="wH7noNQ4ZhhsF74bomil-24">
          <mxGeometry y="104.375" width="162" height="26" as="geometry" />
        </mxCell>
        <mxCell id="wH7noNQ4ZhhsF74bomil-29" style="line;strokeWidth=1;fillColor=none;align=left;verticalAlign=middle;spacingTop=-1;spacingLeft=3;spacingRight=3;rotatable=0;labelPosition=right;points=[];portConstraint=eastwest;strokeColor=inherit;" vertex="1" parent="wH7noNQ4ZhhsF74bomil-24">
          <mxGeometry y="130.375" width="162" height="8" as="geometry" />
        </mxCell>
        <mxCell id="wH7noNQ4ZhhsF74bomil-30" value="+moderateContent()" style="text;strokeColor=none;fillColor=none;align=left;verticalAlign=top;spacingLeft=4;spacingRight=4;overflow=hidden;rotatable=0;points=[[0,0.5],[1,0.5]];portConstraint=eastwest;" vertex="1" parent="wH7noNQ4ZhhsF74bomil-24">
          <mxGeometry y="138.375" width="162" height="26" as="geometry" />
        </mxCell>
        <mxCell id="wH7noNQ4ZhhsF74bomil-31" value="+manageUsers()" style="text;strokeColor=none;fillColor=none;align=left;verticalAlign=top;spacingLeft=4;spacingRight=4;overflow=hidden;rotatable=0;points=[[0,0.5],[1,0.5]];portConstraint=eastwest;" vertex="1" parent="wH7noNQ4ZhhsF74bomil-24">
          <mxGeometry y="164.375" width="162" height="26" as="geometry" />
        </mxCell>
        <mxCell id="wH7noNQ4ZhhsF74bomil-32" value="+viewReports()" style="text;strokeColor=none;fillColor=none;align=left;verticalAlign=top;spacingLeft=4;spacingRight=4;overflow=hidden;rotatable=0;points=[[0,0.5],[1,0.5]];portConstraint=eastwest;" vertex="1" parent="wH7noNQ4ZhhsF74bomil-24">
          <mxGeometry y="190.375" width="162" height="26" as="geometry" />
        </mxCell>
        <mxCell id="wH7noNQ4ZhhsF74bomil-33" value="Post" style="swimlane;fontStyle=1;align=center;verticalAlign=top;childLayout=stackLayout;horizontal=1;startSize=25.7;horizontalStack=0;resizeParent=1;resizeParentMax=0;resizeLast=0;collapsible=0;marginBottom=0;" vertex="1" parent="WIyWlLk6GJQsqaUBKTNV-1">
          <mxGeometry x="294" y="1022" width="170" height="267.7" as="geometry" />
        </mxCell>
        <mxCell id="wH7noNQ4ZhhsF74bomil-34" value="+postID: String" style="text;strokeColor=none;fillColor=none;align=left;verticalAlign=top;spacingLeft=4;spacingRight=4;overflow=hidden;rotatable=0;points=[[0,0.5],[1,0.5]];portConstraint=eastwest;" vertex="1" parent="wH7noNQ4ZhhsF74bomil-33">
          <mxGeometry y="25.7" width="170" height="26" as="geometry" />
        </mxCell>
        <mxCell id="wH7noNQ4ZhhsF74bomil-35" value="+userID: String" style="text;strokeColor=none;fillColor=none;align=left;verticalAlign=top;spacingLeft=4;spacingRight=4;overflow=hidden;rotatable=0;points=[[0,0.5],[1,0.5]];portConstraint=eastwest;" vertex="1" parent="wH7noNQ4ZhhsF74bomil-33">
          <mxGeometry y="51.7" width="170" height="26" as="geometry" />
        </mxCell>
        <mxCell id="wH7noNQ4ZhhsF74bomil-36" value="+content: String" style="text;strokeColor=none;fillColor=none;align=left;verticalAlign=top;spacingLeft=4;spacingRight=4;overflow=hidden;rotatable=0;points=[[0,0.5],[1,0.5]];portConstraint=eastwest;" vertex="1" parent="wH7noNQ4ZhhsF74bomil-33">
          <mxGeometry y="77.7" width="170" height="26" as="geometry" />
        </mxCell>
        <mxCell id="wH7noNQ4ZhhsF74bomil-37" value="+timestamp: Date" style="text;strokeColor=none;fillColor=none;align=left;verticalAlign=top;spacingLeft=4;spacingRight=4;overflow=hidden;rotatable=0;points=[[0,0.5],[1,0.5]];portConstraint=eastwest;" vertex="1" parent="wH7noNQ4ZhhsF74bomil-33">
          <mxGeometry y="103.7" width="170" height="26" as="geometry" />
        </mxCell>
        <mxCell id="wH7noNQ4ZhhsF74bomil-38" value="+likesCount: int" style="text;strokeColor=none;fillColor=none;align=left;verticalAlign=top;spacingLeft=4;spacingRight=4;overflow=hidden;rotatable=0;points=[[0,0.5],[1,0.5]];portConstraint=eastwest;" vertex="1" parent="wH7noNQ4ZhhsF74bomil-33">
          <mxGeometry y="129.7" width="170" height="26" as="geometry" />
        </mxCell>
        <mxCell id="wH7noNQ4ZhhsF74bomil-39" value="+commentsCount: int" style="text;strokeColor=none;fillColor=none;align=left;verticalAlign=top;spacingLeft=4;spacingRight=4;overflow=hidden;rotatable=0;points=[[0,0.5],[1,0.5]];portConstraint=eastwest;" vertex="1" parent="wH7noNQ4ZhhsF74bomil-33">
          <mxGeometry y="155.7" width="170" height="26" as="geometry" />
        </mxCell>
        <mxCell id="wH7noNQ4ZhhsF74bomil-40" style="line;strokeWidth=1;fillColor=none;align=left;verticalAlign=middle;spacingTop=-1;spacingLeft=3;spacingRight=3;rotatable=0;labelPosition=right;points=[];portConstraint=eastwest;strokeColor=inherit;" vertex="1" parent="wH7noNQ4ZhhsF74bomil-33">
          <mxGeometry y="181.7" width="170" height="8" as="geometry" />
        </mxCell>
        <mxCell id="wH7noNQ4ZhhsF74bomil-41" value="+createPost()" style="text;strokeColor=none;fillColor=none;align=left;verticalAlign=top;spacingLeft=4;spacingRight=4;overflow=hidden;rotatable=0;points=[[0,0.5],[1,0.5]];portConstraint=eastwest;" vertex="1" parent="wH7noNQ4ZhhsF74bomil-33">
          <mxGeometry y="189.7" width="170" height="26" as="geometry" />
        </mxCell>
        <mxCell id="wH7noNQ4ZhhsF74bomil-42" value="+editPost()" style="text;strokeColor=none;fillColor=none;align=left;verticalAlign=top;spacingLeft=4;spacingRight=4;overflow=hidden;rotatable=0;points=[[0,0.5],[1,0.5]];portConstraint=eastwest;" vertex="1" parent="wH7noNQ4ZhhsF74bomil-33">
          <mxGeometry y="215.7" width="170" height="26" as="geometry" />
        </mxCell>
        <mxCell id="wH7noNQ4ZhhsF74bomil-43" value="+deletePost()" style="text;strokeColor=none;fillColor=none;align=left;verticalAlign=top;spacingLeft=4;spacingRight=4;overflow=hidden;rotatable=0;points=[[0,0.5],[1,0.5]];portConstraint=eastwest;" vertex="1" parent="wH7noNQ4ZhhsF74bomil-33">
          <mxGeometry y="241.7" width="170" height="26" as="geometry" />
        </mxCell>
        <mxCell id="wH7noNQ4ZhhsF74bomil-44" value="Comment" style="swimlane;fontStyle=1;align=center;verticalAlign=top;childLayout=stackLayout;horizontal=1;startSize=26.375;horizontalStack=0;resizeParent=1;resizeParentMax=0;resizeLast=0;collapsible=0;marginBottom=0;" vertex="1" parent="WIyWlLk6GJQsqaUBKTNV-1">
          <mxGeometry x="20" y="1356" width="157" height="216.375" as="geometry" />
        </mxCell>
        <mxCell id="wH7noNQ4ZhhsF74bomil-45" value="+commentID: String" style="text;strokeColor=none;fillColor=none;align=left;verticalAlign=top;spacingLeft=4;spacingRight=4;overflow=hidden;rotatable=0;points=[[0,0.5],[1,0.5]];portConstraint=eastwest;" vertex="1" parent="wH7noNQ4ZhhsF74bomil-44">
          <mxGeometry y="26.375" width="157" height="26" as="geometry" />
        </mxCell>
        <mxCell id="wH7noNQ4ZhhsF74bomil-46" value="+postID: String" style="text;strokeColor=none;fillColor=none;align=left;verticalAlign=top;spacingLeft=4;spacingRight=4;overflow=hidden;rotatable=0;points=[[0,0.5],[1,0.5]];portConstraint=eastwest;" vertex="1" parent="wH7noNQ4ZhhsF74bomil-44">
          <mxGeometry y="52.375" width="157" height="26" as="geometry" />
        </mxCell>
        <mxCell id="wH7noNQ4ZhhsF74bomil-47" value="+userID: String" style="text;strokeColor=none;fillColor=none;align=left;verticalAlign=top;spacingLeft=4;spacingRight=4;overflow=hidden;rotatable=0;points=[[0,0.5],[1,0.5]];portConstraint=eastwest;" vertex="1" parent="wH7noNQ4ZhhsF74bomil-44">
          <mxGeometry y="78.375" width="157" height="26" as="geometry" />
        </mxCell>
        <mxCell id="wH7noNQ4ZhhsF74bomil-48" value="+content: String" style="text;strokeColor=none;fillColor=none;align=left;verticalAlign=top;spacingLeft=4;spacingRight=4;overflow=hidden;rotatable=0;points=[[0,0.5],[1,0.5]];portConstraint=eastwest;" vertex="1" parent="wH7noNQ4ZhhsF74bomil-44">
          <mxGeometry y="104.375" width="157" height="26" as="geometry" />
        </mxCell>
        <mxCell id="wH7noNQ4ZhhsF74bomil-49" value="+timestamp: Date" style="text;strokeColor=none;fillColor=none;align=left;verticalAlign=top;spacingLeft=4;spacingRight=4;overflow=hidden;rotatable=0;points=[[0,0.5],[1,0.5]];portConstraint=eastwest;" vertex="1" parent="wH7noNQ4ZhhsF74bomil-44">
          <mxGeometry y="130.375" width="157" height="26" as="geometry" />
        </mxCell>
        <mxCell id="wH7noNQ4ZhhsF74bomil-50" style="line;strokeWidth=1;fillColor=none;align=left;verticalAlign=middle;spacingTop=-1;spacingLeft=3;spacingRight=3;rotatable=0;labelPosition=right;points=[];portConstraint=eastwest;strokeColor=inherit;" vertex="1" parent="wH7noNQ4ZhhsF74bomil-44">
          <mxGeometry y="156.375" width="157" height="8" as="geometry" />
        </mxCell>
        <mxCell id="wH7noNQ4ZhhsF74bomil-51" value="+addComment()" style="text;strokeColor=none;fillColor=none;align=left;verticalAlign=top;spacingLeft=4;spacingRight=4;overflow=hidden;rotatable=0;points=[[0,0.5],[1,0.5]];portConstraint=eastwest;" vertex="1" parent="wH7noNQ4ZhhsF74bomil-44">
          <mxGeometry y="164.375" width="157" height="26" as="geometry" />
        </mxCell>
        <mxCell id="wH7noNQ4ZhhsF74bomil-52" value="+deleteComment()" style="text;strokeColor=none;fillColor=none;align=left;verticalAlign=top;spacingLeft=4;spacingRight=4;overflow=hidden;rotatable=0;points=[[0,0.5],[1,0.5]];portConstraint=eastwest;" vertex="1" parent="wH7noNQ4ZhhsF74bomil-44">
          <mxGeometry y="190.375" width="157" height="26" as="geometry" />
        </mxCell>
        <mxCell id="wH7noNQ4ZhhsF74bomil-53" value="Message" style="swimlane;fontStyle=1;align=center;verticalAlign=top;childLayout=stackLayout;horizontal=1;startSize=26.375;horizontalStack=0;resizeParent=1;resizeParentMax=0;resizeLast=0;collapsible=0;marginBottom=0;" vertex="1" parent="WIyWlLk6GJQsqaUBKTNV-1">
          <mxGeometry x="815" y="1045" width="150" height="216.375" as="geometry" />
        </mxCell>
        <mxCell id="wH7noNQ4ZhhsF74bomil-54" value="+messageID: String" style="text;strokeColor=none;fillColor=none;align=left;verticalAlign=top;spacingLeft=4;spacingRight=4;overflow=hidden;rotatable=0;points=[[0,0.5],[1,0.5]];portConstraint=eastwest;" vertex="1" parent="wH7noNQ4ZhhsF74bomil-53">
          <mxGeometry y="26.375" width="150" height="26" as="geometry" />
        </mxCell>
        <mxCell id="wH7noNQ4ZhhsF74bomil-55" value="+senderID: String" style="text;strokeColor=none;fillColor=none;align=left;verticalAlign=top;spacingLeft=4;spacingRight=4;overflow=hidden;rotatable=0;points=[[0,0.5],[1,0.5]];portConstraint=eastwest;" vertex="1" parent="wH7noNQ4ZhhsF74bomil-53">
          <mxGeometry y="52.375" width="150" height="26" as="geometry" />
        </mxCell>
        <mxCell id="wH7noNQ4ZhhsF74bomil-56" value="+receiverID: String" style="text;strokeColor=none;fillColor=none;align=left;verticalAlign=top;spacingLeft=4;spacingRight=4;overflow=hidden;rotatable=0;points=[[0,0.5],[1,0.5]];portConstraint=eastwest;" vertex="1" parent="wH7noNQ4ZhhsF74bomil-53">
          <mxGeometry y="78.375" width="150" height="26" as="geometry" />
        </mxCell>
        <mxCell id="wH7noNQ4ZhhsF74bomil-57" value="+content: String" style="text;strokeColor=none;fillColor=none;align=left;verticalAlign=top;spacingLeft=4;spacingRight=4;overflow=hidden;rotatable=0;points=[[0,0.5],[1,0.5]];portConstraint=eastwest;" vertex="1" parent="wH7noNQ4ZhhsF74bomil-53">
          <mxGeometry y="104.375" width="150" height="26" as="geometry" />
        </mxCell>
        <mxCell id="wH7noNQ4ZhhsF74bomil-58" value="+timestamp: Date" style="text;strokeColor=none;fillColor=none;align=left;verticalAlign=top;spacingLeft=4;spacingRight=4;overflow=hidden;rotatable=0;points=[[0,0.5],[1,0.5]];portConstraint=eastwest;" vertex="1" parent="wH7noNQ4ZhhsF74bomil-53">
          <mxGeometry y="130.375" width="150" height="26" as="geometry" />
        </mxCell>
        <mxCell id="wH7noNQ4ZhhsF74bomil-59" style="line;strokeWidth=1;fillColor=none;align=left;verticalAlign=middle;spacingTop=-1;spacingLeft=3;spacingRight=3;rotatable=0;labelPosition=right;points=[];portConstraint=eastwest;strokeColor=inherit;" vertex="1" parent="wH7noNQ4ZhhsF74bomil-53">
          <mxGeometry y="156.375" width="150" height="8" as="geometry" />
        </mxCell>
        <mxCell id="wH7noNQ4ZhhsF74bomil-60" value="+sendMessage()" style="text;strokeColor=none;fillColor=none;align=left;verticalAlign=top;spacingLeft=4;spacingRight=4;overflow=hidden;rotatable=0;points=[[0,0.5],[1,0.5]];portConstraint=eastwest;" vertex="1" parent="wH7noNQ4ZhhsF74bomil-53">
          <mxGeometry y="164.375" width="150" height="26" as="geometry" />
        </mxCell>
        <mxCell id="wH7noNQ4ZhhsF74bomil-61" value="+deleteMessage()" style="text;strokeColor=none;fillColor=none;align=left;verticalAlign=top;spacingLeft=4;spacingRight=4;overflow=hidden;rotatable=0;points=[[0,0.5],[1,0.5]];portConstraint=eastwest;" vertex="1" parent="wH7noNQ4ZhhsF74bomil-53">
          <mxGeometry y="190.375" width="150" height="26" as="geometry" />
        </mxCell>
        <mxCell id="wH7noNQ4ZhhsF74bomil-62" value="Notification" style="swimlane;fontStyle=1;align=center;verticalAlign=top;childLayout=stackLayout;horizontal=1;startSize=26.375;horizontalStack=0;resizeParent=1;resizeParentMax=0;resizeLast=0;collapsible=0;marginBottom=0;" vertex="1" parent="WIyWlLk6GJQsqaUBKTNV-1">
          <mxGeometry x="789" y="377" width="173" height="216.375" as="geometry" />
        </mxCell>
        <mxCell id="wH7noNQ4ZhhsF74bomil-63" value="+notificationID: String" style="text;strokeColor=none;fillColor=none;align=left;verticalAlign=top;spacingLeft=4;spacingRight=4;overflow=hidden;rotatable=0;points=[[0,0.5],[1,0.5]];portConstraint=eastwest;" vertex="1" parent="wH7noNQ4ZhhsF74bomil-62">
          <mxGeometry y="26.375" width="173" height="26" as="geometry" />
        </mxCell>
        <mxCell id="wH7noNQ4ZhhsF74bomil-64" value="+userID: String" style="text;strokeColor=none;fillColor=none;align=left;verticalAlign=top;spacingLeft=4;spacingRight=4;overflow=hidden;rotatable=0;points=[[0,0.5],[1,0.5]];portConstraint=eastwest;" vertex="1" parent="wH7noNQ4ZhhsF74bomil-62">
          <mxGeometry y="52.375" width="173" height="26" as="geometry" />
        </mxCell>
        <mxCell id="wH7noNQ4ZhhsF74bomil-65" value="+type: String" style="text;strokeColor=none;fillColor=none;align=left;verticalAlign=top;spacingLeft=4;spacingRight=4;overflow=hidden;rotatable=0;points=[[0,0.5],[1,0.5]];portConstraint=eastwest;" vertex="1" parent="wH7noNQ4ZhhsF74bomil-62">
          <mxGeometry y="78.375" width="173" height="26" as="geometry" />
        </mxCell>
        <mxCell id="wH7noNQ4ZhhsF74bomil-66" value="+content: String" style="text;strokeColor=none;fillColor=none;align=left;verticalAlign=top;spacingLeft=4;spacingRight=4;overflow=hidden;rotatable=0;points=[[0,0.5],[1,0.5]];portConstraint=eastwest;" vertex="1" parent="wH7noNQ4ZhhsF74bomil-62">
          <mxGeometry y="104.375" width="173" height="26" as="geometry" />
        </mxCell>
        <mxCell id="wH7noNQ4ZhhsF74bomil-67" value="+timestamp: Date" style="text;strokeColor=none;fillColor=none;align=left;verticalAlign=top;spacingLeft=4;spacingRight=4;overflow=hidden;rotatable=0;points=[[0,0.5],[1,0.5]];portConstraint=eastwest;" vertex="1" parent="wH7noNQ4ZhhsF74bomil-62">
          <mxGeometry y="130.375" width="173" height="26" as="geometry" />
        </mxCell>
        <mxCell id="wH7noNQ4ZhhsF74bomil-68" style="line;strokeWidth=1;fillColor=none;align=left;verticalAlign=middle;spacingTop=-1;spacingLeft=3;spacingRight=3;rotatable=0;labelPosition=right;points=[];portConstraint=eastwest;strokeColor=inherit;" vertex="1" parent="wH7noNQ4ZhhsF74bomil-62">
          <mxGeometry y="156.375" width="173" height="8" as="geometry" />
        </mxCell>
        <mxCell id="wH7noNQ4ZhhsF74bomil-69" value="+createNotification()" style="text;strokeColor=none;fillColor=none;align=left;verticalAlign=top;spacingLeft=4;spacingRight=4;overflow=hidden;rotatable=0;points=[[0,0.5],[1,0.5]];portConstraint=eastwest;" vertex="1" parent="wH7noNQ4ZhhsF74bomil-62">
          <mxGeometry y="164.375" width="173" height="26" as="geometry" />
        </mxCell>
        <mxCell id="wH7noNQ4ZhhsF74bomil-70" value="+sendNotification()" style="text;strokeColor=none;fillColor=none;align=left;verticalAlign=top;spacingLeft=4;spacingRight=4;overflow=hidden;rotatable=0;points=[[0,0.5],[1,0.5]];portConstraint=eastwest;" vertex="1" parent="wH7noNQ4ZhhsF74bomil-62">
          <mxGeometry y="190.375" width="173" height="26" as="geometry" />
        </mxCell>
        <mxCell id="wH7noNQ4ZhhsF74bomil-71" value="ExternalSystem" style="swimlane;fontStyle=1;align=center;verticalAlign=top;childLayout=stackLayout;horizontal=1;startSize=27.5;horizontalStack=0;resizeParent=1;resizeParentMax=0;resizeLast=0;collapsible=0;marginBottom=0;" vertex="1" parent="WIyWlLk6GJQsqaUBKTNV-1">
          <mxGeometry x="458" y="400" width="159" height="175.5" as="geometry" />
        </mxCell>
        <mxCell id="wH7noNQ4ZhhsF74bomil-72" value="+systemID: String" style="text;strokeColor=none;fillColor=none;align=left;verticalAlign=top;spacingLeft=4;spacingRight=4;overflow=hidden;rotatable=0;points=[[0,0.5],[1,0.5]];portConstraint=eastwest;" vertex="1" parent="wH7noNQ4ZhhsF74bomil-71">
          <mxGeometry y="27.5" width="159" height="28" as="geometry" />
        </mxCell>
        <mxCell id="wH7noNQ4ZhhsF74bomil-73" value="+serviceType: String" style="text;strokeColor=none;fillColor=none;align=left;verticalAlign=top;spacingLeft=4;spacingRight=4;overflow=hidden;rotatable=0;points=[[0,0.5],[1,0.5]];portConstraint=eastwest;" vertex="1" parent="wH7noNQ4ZhhsF74bomil-71">
          <mxGeometry y="55.5" width="159" height="28" as="geometry" />
        </mxCell>
        <mxCell id="wH7noNQ4ZhhsF74bomil-74" value="+serviceURL: String" style="text;strokeColor=none;fillColor=none;align=left;verticalAlign=top;spacingLeft=4;spacingRight=4;overflow=hidden;rotatable=0;points=[[0,0.5],[1,0.5]];portConstraint=eastwest;" vertex="1" parent="wH7noNQ4ZhhsF74bomil-71">
          <mxGeometry y="83.5" width="159" height="28" as="geometry" />
        </mxCell>
        <mxCell id="wH7noNQ4ZhhsF74bomil-75" style="line;strokeWidth=1;fillColor=none;align=left;verticalAlign=middle;spacingTop=-1;spacingLeft=3;spacingRight=3;rotatable=0;labelPosition=right;points=[];portConstraint=eastwest;strokeColor=inherit;" vertex="1" parent="wH7noNQ4ZhhsF74bomil-71">
          <mxGeometry y="111.5" width="159" height="8" as="geometry" />
        </mxCell>
        <mxCell id="wH7noNQ4ZhhsF74bomil-76" value="+authenticateUser()" style="text;strokeColor=none;fillColor=none;align=left;verticalAlign=top;spacingLeft=4;spacingRight=4;overflow=hidden;rotatable=0;points=[[0,0.5],[1,0.5]];portConstraint=eastwest;" vertex="1" parent="wH7noNQ4ZhhsF74bomil-71">
          <mxGeometry y="119.5" width="159" height="28" as="geometry" />
        </mxCell>
        <mxCell id="wH7noNQ4ZhhsF74bomil-77" value="+storeMedia()" style="text;strokeColor=none;fillColor=none;align=left;verticalAlign=top;spacingLeft=4;spacingRight=4;overflow=hidden;rotatable=0;points=[[0,0.5],[1,0.5]];portConstraint=eastwest;" vertex="1" parent="wH7noNQ4ZhhsF74bomil-71">
          <mxGeometry y="147.5" width="159" height="28" as="geometry" />
        </mxCell>
        <mxCell id="wH7noNQ4ZhhsF74bomil-78" value="Feed" style="swimlane;fontStyle=1;align=center;verticalAlign=top;childLayout=stackLayout;horizontal=1;startSize=27.5;horizontalStack=0;resizeParent=1;resizeParentMax=0;resizeLast=0;collapsible=0;marginBottom=0;" vertex="1" parent="WIyWlLk6GJQsqaUBKTNV-1">
          <mxGeometry x="295" y="723" width="122" height="175.5" as="geometry" />
        </mxCell>
        <mxCell id="wH7noNQ4ZhhsF74bomil-79" value="+feedID: String" style="text;strokeColor=none;fillColor=none;align=left;verticalAlign=top;spacingLeft=4;spacingRight=4;overflow=hidden;rotatable=0;points=[[0,0.5],[1,0.5]];portConstraint=eastwest;" vertex="1" parent="wH7noNQ4ZhhsF74bomil-78">
          <mxGeometry y="27.5" width="122" height="28" as="geometry" />
        </mxCell>
        <mxCell id="wH7noNQ4ZhhsF74bomil-80" value="+userID: String" style="text;strokeColor=none;fillColor=none;align=left;verticalAlign=top;spacingLeft=4;spacingRight=4;overflow=hidden;rotatable=0;points=[[0,0.5],[1,0.5]];portConstraint=eastwest;" vertex="1" parent="wH7noNQ4ZhhsF74bomil-78">
          <mxGeometry y="55.5" width="122" height="28" as="geometry" />
        </mxCell>
        <mxCell id="wH7noNQ4ZhhsF74bomil-81" value="+posts: List" style="text;strokeColor=none;fillColor=none;align=left;verticalAlign=top;spacingLeft=4;spacingRight=4;overflow=hidden;rotatable=0;points=[[0,0.5],[1,0.5]];portConstraint=eastwest;" vertex="1" parent="wH7noNQ4ZhhsF74bomil-78">
          <mxGeometry y="83.5" width="122" height="28" as="geometry" />
        </mxCell>
        <mxCell id="wH7noNQ4ZhhsF74bomil-82" style="line;strokeWidth=1;fillColor=none;align=left;verticalAlign=middle;spacingTop=-1;spacingLeft=3;spacingRight=3;rotatable=0;labelPosition=right;points=[];portConstraint=eastwest;strokeColor=inherit;" vertex="1" parent="wH7noNQ4ZhhsF74bomil-78">
          <mxGeometry y="111.5" width="122" height="8" as="geometry" />
        </mxCell>
        <mxCell id="wH7noNQ4ZhhsF74bomil-83" value="+loadFeed()" style="text;strokeColor=none;fillColor=none;align=left;verticalAlign=top;spacingLeft=4;spacingRight=4;overflow=hidden;rotatable=0;points=[[0,0.5],[1,0.5]];portConstraint=eastwest;" vertex="1" parent="wH7noNQ4ZhhsF74bomil-78">
          <mxGeometry y="119.5" width="122" height="28" as="geometry" />
        </mxCell>
        <mxCell id="wH7noNQ4ZhhsF74bomil-84" value="+refreshFeed()" style="text;strokeColor=none;fillColor=none;align=left;verticalAlign=top;spacingLeft=4;spacingRight=4;overflow=hidden;rotatable=0;points=[[0,0.5],[1,0.5]];portConstraint=eastwest;" vertex="1" parent="wH7noNQ4ZhhsF74bomil-78">
          <mxGeometry y="147.5" width="122" height="28" as="geometry" />
        </mxCell>
        <mxCell id="wH7noNQ4ZhhsF74bomil-85" value="Like" style="swimlane;fontStyle=1;align=center;verticalAlign=top;childLayout=stackLayout;horizontal=1;startSize=27.5;horizontalStack=0;resizeParent=1;resizeParentMax=0;resizeLast=0;collapsible=0;marginBottom=0;" vertex="1" parent="WIyWlLk6GJQsqaUBKTNV-1">
          <mxGeometry x="227" y="1379" width="120" height="175.5" as="geometry" />
        </mxCell>
        <mxCell id="wH7noNQ4ZhhsF74bomil-86" value="+likeID: String" style="text;strokeColor=none;fillColor=none;align=left;verticalAlign=top;spacingLeft=4;spacingRight=4;overflow=hidden;rotatable=0;points=[[0,0.5],[1,0.5]];portConstraint=eastwest;" vertex="1" parent="wH7noNQ4ZhhsF74bomil-85">
          <mxGeometry y="27.5" width="120" height="28" as="geometry" />
        </mxCell>
        <mxCell id="wH7noNQ4ZhhsF74bomil-87" value="+postID: String" style="text;strokeColor=none;fillColor=none;align=left;verticalAlign=top;spacingLeft=4;spacingRight=4;overflow=hidden;rotatable=0;points=[[0,0.5],[1,0.5]];portConstraint=eastwest;" vertex="1" parent="wH7noNQ4ZhhsF74bomil-85">
          <mxGeometry y="55.5" width="120" height="28" as="geometry" />
        </mxCell>
        <mxCell id="wH7noNQ4ZhhsF74bomil-88" value="+userID: String" style="text;strokeColor=none;fillColor=none;align=left;verticalAlign=top;spacingLeft=4;spacingRight=4;overflow=hidden;rotatable=0;points=[[0,0.5],[1,0.5]];portConstraint=eastwest;" vertex="1" parent="wH7noNQ4ZhhsF74bomil-85">
          <mxGeometry y="83.5" width="120" height="28" as="geometry" />
        </mxCell>
        <mxCell id="wH7noNQ4ZhhsF74bomil-89" style="line;strokeWidth=1;fillColor=none;align=left;verticalAlign=middle;spacingTop=-1;spacingLeft=3;spacingRight=3;rotatable=0;labelPosition=right;points=[];portConstraint=eastwest;strokeColor=inherit;" vertex="1" parent="wH7noNQ4ZhhsF74bomil-85">
          <mxGeometry y="111.5" width="120" height="8" as="geometry" />
        </mxCell>
        <mxCell id="wH7noNQ4ZhhsF74bomil-90" value="+addLike()" style="text;strokeColor=none;fillColor=none;align=left;verticalAlign=top;spacingLeft=4;spacingRight=4;overflow=hidden;rotatable=0;points=[[0,0.5],[1,0.5]];portConstraint=eastwest;" vertex="1" parent="wH7noNQ4ZhhsF74bomil-85">
          <mxGeometry y="119.5" width="120" height="28" as="geometry" />
        </mxCell>
        <mxCell id="wH7noNQ4ZhhsF74bomil-91" value="+removeLike()" style="text;strokeColor=none;fillColor=none;align=left;verticalAlign=top;spacingLeft=4;spacingRight=4;overflow=hidden;rotatable=0;points=[[0,0.5],[1,0.5]];portConstraint=eastwest;" vertex="1" parent="wH7noNQ4ZhhsF74bomil-85">
          <mxGeometry y="147.5" width="120" height="28" as="geometry" />
        </mxCell>
        <mxCell id="wH7noNQ4ZhhsF74bomil-92" value="Report" style="swimlane;fontStyle=1;align=center;verticalAlign=top;childLayout=stackLayout;horizontal=1;startSize=26.857142857142858;horizontalStack=0;resizeParent=1;resizeParentMax=0;resizeLast=0;collapsible=0;marginBottom=0;" vertex="1" parent="WIyWlLk6GJQsqaUBKTNV-1">
          <mxGeometry x="1048" y="1368" width="144" height="196.85714285714286" as="geometry" />
        </mxCell>
        <mxCell id="wH7noNQ4ZhhsF74bomil-93" value="+reportID: String" style="text;strokeColor=none;fillColor=none;align=left;verticalAlign=top;spacingLeft=4;spacingRight=4;overflow=hidden;rotatable=0;points=[[0,0.5],[1,0.5]];portConstraint=eastwest;" vertex="1" parent="wH7noNQ4ZhhsF74bomil-92">
          <mxGeometry y="26.857142857142858" width="144" height="27" as="geometry" />
        </mxCell>
        <mxCell id="wH7noNQ4ZhhsF74bomil-94" value="+adminID: String" style="text;strokeColor=none;fillColor=none;align=left;verticalAlign=top;spacingLeft=4;spacingRight=4;overflow=hidden;rotatable=0;points=[[0,0.5],[1,0.5]];portConstraint=eastwest;" vertex="1" parent="wH7noNQ4ZhhsF74bomil-92">
          <mxGeometry y="53.85714285714286" width="144" height="27" as="geometry" />
        </mxCell>
        <mxCell id="wH7noNQ4ZhhsF74bomil-95" value="+content: String" style="text;strokeColor=none;fillColor=none;align=left;verticalAlign=top;spacingLeft=4;spacingRight=4;overflow=hidden;rotatable=0;points=[[0,0.5],[1,0.5]];portConstraint=eastwest;" vertex="1" parent="wH7noNQ4ZhhsF74bomil-92">
          <mxGeometry y="80.85714285714286" width="144" height="27" as="geometry" />
        </mxCell>
        <mxCell id="wH7noNQ4ZhhsF74bomil-96" value="+timestamp: Date" style="text;strokeColor=none;fillColor=none;align=left;verticalAlign=top;spacingLeft=4;spacingRight=4;overflow=hidden;rotatable=0;points=[[0,0.5],[1,0.5]];portConstraint=eastwest;" vertex="1" parent="wH7noNQ4ZhhsF74bomil-92">
          <mxGeometry y="107.85714285714286" width="144" height="27" as="geometry" />
        </mxCell>
        <mxCell id="wH7noNQ4ZhhsF74bomil-97" style="line;strokeWidth=1;fillColor=none;align=left;verticalAlign=middle;spacingTop=-1;spacingLeft=3;spacingRight=3;rotatable=0;labelPosition=right;points=[];portConstraint=eastwest;strokeColor=inherit;" vertex="1" parent="wH7noNQ4ZhhsF74bomil-92">
          <mxGeometry y="134.85714285714286" width="144" height="8" as="geometry" />
        </mxCell>
        <mxCell id="wH7noNQ4ZhhsF74bomil-98" value="+createReport()" style="text;strokeColor=none;fillColor=none;align=left;verticalAlign=top;spacingLeft=4;spacingRight=4;overflow=hidden;rotatable=0;points=[[0,0.5],[1,0.5]];portConstraint=eastwest;" vertex="1" parent="wH7noNQ4ZhhsF74bomil-92">
          <mxGeometry y="142.85714285714286" width="144" height="27" as="geometry" />
        </mxCell>
        <mxCell id="wH7noNQ4ZhhsF74bomil-99" value="+viewReport()" style="text;strokeColor=none;fillColor=none;align=left;verticalAlign=top;spacingLeft=4;spacingRight=4;overflow=hidden;rotatable=0;points=[[0,0.5],[1,0.5]];portConstraint=eastwest;" vertex="1" parent="wH7noNQ4ZhhsF74bomil-92">
          <mxGeometry y="169.85714285714286" width="144" height="27" as="geometry" />
        </mxCell>
        <mxCell id="wH7noNQ4ZhhsF74bomil-100" value="FileManager" style="swimlane;fontStyle=1;align=center;verticalAlign=top;childLayout=stackLayout;horizontal=1;startSize=26.857142857142858;horizontalStack=0;resizeParent=1;resizeParentMax=0;resizeLast=0;collapsible=0;marginBottom=0;" vertex="1" parent="WIyWlLk6GJQsqaUBKTNV-1">
          <mxGeometry x="580" y="1368" width="149" height="196.85714285714286" as="geometry" />
        </mxCell>
        <mxCell id="wH7noNQ4ZhhsF74bomil-101" value="+fileID: String" style="text;strokeColor=none;fillColor=none;align=left;verticalAlign=top;spacingLeft=4;spacingRight=4;overflow=hidden;rotatable=0;points=[[0,0.5],[1,0.5]];portConstraint=eastwest;" vertex="1" parent="wH7noNQ4ZhhsF74bomil-100">
          <mxGeometry y="26.857142857142858" width="149" height="27" as="geometry" />
        </mxCell>
        <mxCell id="wH7noNQ4ZhhsF74bomil-102" value="+fileName: String" style="text;strokeColor=none;fillColor=none;align=left;verticalAlign=top;spacingLeft=4;spacingRight=4;overflow=hidden;rotatable=0;points=[[0,0.5],[1,0.5]];portConstraint=eastwest;" vertex="1" parent="wH7noNQ4ZhhsF74bomil-100">
          <mxGeometry y="53.85714285714286" width="149" height="27" as="geometry" />
        </mxCell>
        <mxCell id="wH7noNQ4ZhhsF74bomil-103" value="+fileType: String" style="text;strokeColor=none;fillColor=none;align=left;verticalAlign=top;spacingLeft=4;spacingRight=4;overflow=hidden;rotatable=0;points=[[0,0.5],[1,0.5]];portConstraint=eastwest;" vertex="1" parent="wH7noNQ4ZhhsF74bomil-100">
          <mxGeometry y="80.85714285714286" width="149" height="27" as="geometry" />
        </mxCell>
        <mxCell id="wH7noNQ4ZhhsF74bomil-104" value="+uploadDate: Date" style="text;strokeColor=none;fillColor=none;align=left;verticalAlign=top;spacingLeft=4;spacingRight=4;overflow=hidden;rotatable=0;points=[[0,0.5],[1,0.5]];portConstraint=eastwest;" vertex="1" parent="wH7noNQ4ZhhsF74bomil-100">
          <mxGeometry y="107.85714285714286" width="149" height="27" as="geometry" />
        </mxCell>
        <mxCell id="wH7noNQ4ZhhsF74bomil-105" style="line;strokeWidth=1;fillColor=none;align=left;verticalAlign=middle;spacingTop=-1;spacingLeft=3;spacingRight=3;rotatable=0;labelPosition=right;points=[];portConstraint=eastwest;strokeColor=inherit;" vertex="1" parent="wH7noNQ4ZhhsF74bomil-100">
          <mxGeometry y="134.85714285714286" width="149" height="8" as="geometry" />
        </mxCell>
        <mxCell id="wH7noNQ4ZhhsF74bomil-106" value="+uploadFile()" style="text;strokeColor=none;fillColor=none;align=left;verticalAlign=top;spacingLeft=4;spacingRight=4;overflow=hidden;rotatable=0;points=[[0,0.5],[1,0.5]];portConstraint=eastwest;" vertex="1" parent="wH7noNQ4ZhhsF74bomil-100">
          <mxGeometry y="142.85714285714286" width="149" height="27" as="geometry" />
        </mxCell>
        <mxCell id="wH7noNQ4ZhhsF74bomil-107" value="+deleteFile()" style="text;strokeColor=none;fillColor=none;align=left;verticalAlign=top;spacingLeft=4;spacingRight=4;overflow=hidden;rotatable=0;points=[[0,0.5],[1,0.5]];portConstraint=eastwest;" vertex="1" parent="wH7noNQ4ZhhsF74bomil-100">
          <mxGeometry y="169.85714285714286" width="149" height="27" as="geometry" />
        </mxCell>
        <mxCell id="wH7noNQ4ZhhsF74bomil-108" value="Authentication" style="swimlane;fontStyle=1;align=center;verticalAlign=top;childLayout=stackLayout;horizontal=1;startSize=28.4;horizontalStack=0;resizeParent=1;resizeParentMax=0;resizeLast=0;collapsible=0;marginBottom=0;" vertex="1" parent="WIyWlLk6GJQsqaUBKTNV-1">
          <mxGeometry x="467" y="734" width="141" height="148.4" as="geometry" />
        </mxCell>
        <mxCell id="wH7noNQ4ZhhsF74bomil-109" value="+authID: String" style="text;strokeColor=none;fillColor=none;align=left;verticalAlign=top;spacingLeft=4;spacingRight=4;overflow=hidden;rotatable=0;points=[[0,0.5],[1,0.5]];portConstraint=eastwest;" vertex="1" parent="wH7noNQ4ZhhsF74bomil-108">
          <mxGeometry y="28.4" width="141" height="28" as="geometry" />
        </mxCell>
        <mxCell id="wH7noNQ4ZhhsF74bomil-110" value="+authType: String" style="text;strokeColor=none;fillColor=none;align=left;verticalAlign=top;spacingLeft=4;spacingRight=4;overflow=hidden;rotatable=0;points=[[0,0.5],[1,0.5]];portConstraint=eastwest;" vertex="1" parent="wH7noNQ4ZhhsF74bomil-108">
          <mxGeometry y="56.4" width="141" height="28" as="geometry" />
        </mxCell>
        <mxCell id="wH7noNQ4ZhhsF74bomil-111" value="+authURL: String" style="text;strokeColor=none;fillColor=none;align=left;verticalAlign=top;spacingLeft=4;spacingRight=4;overflow=hidden;rotatable=0;points=[[0,0.5],[1,0.5]];portConstraint=eastwest;" vertex="1" parent="wH7noNQ4ZhhsF74bomil-108">
          <mxGeometry y="84.4" width="141" height="28" as="geometry" />
        </mxCell>
        <mxCell id="wH7noNQ4ZhhsF74bomil-112" style="line;strokeWidth=1;fillColor=none;align=left;verticalAlign=middle;spacingTop=-1;spacingLeft=3;spacingRight=3;rotatable=0;labelPosition=right;points=[];portConstraint=eastwest;strokeColor=inherit;" vertex="1" parent="wH7noNQ4ZhhsF74bomil-108">
          <mxGeometry y="112.4" width="141" height="8" as="geometry" />
        </mxCell>
        <mxCell id="wH7noNQ4ZhhsF74bomil-113" value="+validateUser()" style="text;strokeColor=none;fillColor=none;align=left;verticalAlign=top;spacingLeft=4;spacingRight=4;overflow=hidden;rotatable=0;points=[[0,0.5],[1,0.5]];portConstraint=eastwest;" vertex="1" parent="wH7noNQ4ZhhsF74bomil-108">
          <mxGeometry y="120.4" width="141" height="28" as="geometry" />
        </mxCell>
        <mxCell id="wH7noNQ4ZhhsF74bomil-114" value="Session" style="swimlane;fontStyle=1;align=center;verticalAlign=top;childLayout=stackLayout;horizontal=1;startSize=26.857142857142858;horizontalStack=0;resizeParent=1;resizeParentMax=0;resizeLast=0;collapsible=0;marginBottom=0;" vertex="1" parent="WIyWlLk6GJQsqaUBKTNV-1">
          <mxGeometry x="1012" y="389" width="158" height="196.85714285714286" as="geometry" />
        </mxCell>
        <mxCell id="wH7noNQ4ZhhsF74bomil-115" value="+sessionID: String" style="text;strokeColor=none;fillColor=none;align=left;verticalAlign=top;spacingLeft=4;spacingRight=4;overflow=hidden;rotatable=0;points=[[0,0.5],[1,0.5]];portConstraint=eastwest;" vertex="1" parent="wH7noNQ4ZhhsF74bomil-114">
          <mxGeometry y="26.857142857142858" width="158" height="27" as="geometry" />
        </mxCell>
        <mxCell id="wH7noNQ4ZhhsF74bomil-116" value="+userID: String" style="text;strokeColor=none;fillColor=none;align=left;verticalAlign=top;spacingLeft=4;spacingRight=4;overflow=hidden;rotatable=0;points=[[0,0.5],[1,0.5]];portConstraint=eastwest;" vertex="1" parent="wH7noNQ4ZhhsF74bomil-114">
          <mxGeometry y="53.85714285714286" width="158" height="27" as="geometry" />
        </mxCell>
        <mxCell id="wH7noNQ4ZhhsF74bomil-117" value="+loginTime: Date" style="text;strokeColor=none;fillColor=none;align=left;verticalAlign=top;spacingLeft=4;spacingRight=4;overflow=hidden;rotatable=0;points=[[0,0.5],[1,0.5]];portConstraint=eastwest;" vertex="1" parent="wH7noNQ4ZhhsF74bomil-114">
          <mxGeometry y="80.85714285714286" width="158" height="27" as="geometry" />
        </mxCell>
        <mxCell id="wH7noNQ4ZhhsF74bomil-118" value="+logoutTime: Date" style="text;strokeColor=none;fillColor=none;align=left;verticalAlign=top;spacingLeft=4;spacingRight=4;overflow=hidden;rotatable=0;points=[[0,0.5],[1,0.5]];portConstraint=eastwest;" vertex="1" parent="wH7noNQ4ZhhsF74bomil-114">
          <mxGeometry y="107.85714285714286" width="158" height="27" as="geometry" />
        </mxCell>
        <mxCell id="wH7noNQ4ZhhsF74bomil-119" style="line;strokeWidth=1;fillColor=none;align=left;verticalAlign=middle;spacingTop=-1;spacingLeft=3;spacingRight=3;rotatable=0;labelPosition=right;points=[];portConstraint=eastwest;strokeColor=inherit;" vertex="1" parent="wH7noNQ4ZhhsF74bomil-114">
          <mxGeometry y="134.85714285714286" width="158" height="8" as="geometry" />
        </mxCell>
        <mxCell id="wH7noNQ4ZhhsF74bomil-120" value="+createSession()" style="text;strokeColor=none;fillColor=none;align=left;verticalAlign=top;spacingLeft=4;spacingRight=4;overflow=hidden;rotatable=0;points=[[0,0.5],[1,0.5]];portConstraint=eastwest;" vertex="1" parent="wH7noNQ4ZhhsF74bomil-114">
          <mxGeometry y="142.85714285714286" width="158" height="27" as="geometry" />
        </mxCell>
        <mxCell id="wH7noNQ4ZhhsF74bomil-121" value="+terminateSession()" style="text;strokeColor=none;fillColor=none;align=left;verticalAlign=top;spacingLeft=4;spacingRight=4;overflow=hidden;rotatable=0;points=[[0,0.5],[1,0.5]];portConstraint=eastwest;" vertex="1" parent="wH7noNQ4ZhhsF74bomil-114">
          <mxGeometry y="169.85714285714286" width="158" height="27" as="geometry" />
        </mxCell>
        <mxCell id="wH7noNQ4ZhhsF74bomil-122" value="Analytics" style="swimlane;fontStyle=1;align=center;verticalAlign=top;childLayout=stackLayout;horizontal=1;startSize=29.75;horizontalStack=0;resizeParent=1;resizeParentMax=0;resizeLast=0;collapsible=0;marginBottom=0;" vertex="1" parent="WIyWlLk6GJQsqaUBKTNV-1">
          <mxGeometry x="1109" y="746" width="164" height="127.75" as="geometry" />
        </mxCell>
        <mxCell id="wH7noNQ4ZhhsF74bomil-123" value="+analyticsID: String" style="text;strokeColor=none;fillColor=none;align=left;verticalAlign=top;spacingLeft=4;spacingRight=4;overflow=hidden;rotatable=0;points=[[0,0.5],[1,0.5]];portConstraint=eastwest;" vertex="1" parent="wH7noNQ4ZhhsF74bomil-122">
          <mxGeometry y="29.75" width="164" height="30" as="geometry" />
        </mxCell>
        <mxCell id="wH7noNQ4ZhhsF74bomil-124" value="+metrics: String" style="text;strokeColor=none;fillColor=none;align=left;verticalAlign=top;spacingLeft=4;spacingRight=4;overflow=hidden;rotatable=0;points=[[0,0.5],[1,0.5]];portConstraint=eastwest;" vertex="1" parent="wH7noNQ4ZhhsF74bomil-122">
          <mxGeometry y="59.75" width="164" height="30" as="geometry" />
        </mxCell>
        <mxCell id="wH7noNQ4ZhhsF74bomil-125" style="line;strokeWidth=1;fillColor=none;align=left;verticalAlign=middle;spacingTop=-1;spacingLeft=3;spacingRight=3;rotatable=0;labelPosition=right;points=[];portConstraint=eastwest;strokeColor=inherit;" vertex="1" parent="wH7noNQ4ZhhsF74bomil-122">
          <mxGeometry y="89.75" width="164" height="8" as="geometry" />
        </mxCell>
        <mxCell id="wH7noNQ4ZhhsF74bomil-126" value="+generateAnalytics()" style="text;strokeColor=none;fillColor=none;align=left;verticalAlign=top;spacingLeft=4;spacingRight=4;overflow=hidden;rotatable=0;points=[[0,0.5],[1,0.5]];portConstraint=eastwest;" vertex="1" parent="wH7noNQ4ZhhsF74bomil-122">
          <mxGeometry y="97.75" width="164" height="30" as="geometry" />
        </mxCell>
        <mxCell id="wH7noNQ4ZhhsF74bomil-127" value="&quot;1 * users&quot;" style="curved=1;startArrow=none;endArrow=open;endSize=12;exitX=1;exitY=0.79;entryX=0;entryY=0.19;rounded=0;" edge="1" parent="WIyWlLk6GJQsqaUBKTNV-1" source="wH7noNQ4ZhhsF74bomil-0" target="wH7noNQ4ZhhsF74bomil-12">
          <mxGeometry relative="1" as="geometry">
            <Array as="points">
              <mxPoint x="719" y="343" />
              <mxPoint x="719" y="631" />
            </Array>
          </mxGeometry>
        </mxCell>
        <mxCell id="wH7noNQ4ZhhsF74bomil-128" value="&quot;1 * posts&quot;" style="curved=1;startArrow=diamondThin;startSize=14;startFill=0;endArrow=none;exitX=0;exitY=0.61;entryX=0;entryY=0.32;rounded=0;" edge="1" parent="WIyWlLk6GJQsqaUBKTNV-1" source="wH7noNQ4ZhhsF74bomil-0" target="wH7noNQ4ZhhsF74bomil-33">
          <mxGeometry relative="1" as="geometry">
            <Array as="points">
              <mxPoint x="82" y="343" />
              <mxPoint x="82" y="988" />
            </Array>
          </mxGeometry>
        </mxCell>
        <mxCell id="wH7noNQ4ZhhsF74bomil-129" value="&quot;1 * notifications&quot;" style="curved=1;startArrow=diamondThin;startSize=14;startFill=1;endArrow=none;exitX=1;exitY=0.65;entryX=0.5;entryY=0;rounded=0;" edge="1" parent="WIyWlLk6GJQsqaUBKTNV-1" source="wH7noNQ4ZhhsF74bomil-0" target="wH7noNQ4ZhhsF74bomil-62">
          <mxGeometry relative="1" as="geometry">
            <Array as="points">
              <mxPoint x="876" y="343" />
            </Array>
          </mxGeometry>
        </mxCell>
        <mxCell id="wH7noNQ4ZhhsF74bomil-130" value="&quot;uses&quot;" style="curved=1;startArrow=none;endArrow=open;endSize=12;exitX=0.5;exitY=1;entryX=0.5;entryY=0;rounded=0;" edge="1" parent="WIyWlLk6GJQsqaUBKTNV-1" source="wH7noNQ4ZhhsF74bomil-0" target="wH7noNQ4ZhhsF74bomil-71">
          <mxGeometry relative="1" as="geometry">
            <Array as="points" />
          </mxGeometry>
        </mxCell>
        <mxCell id="wH7noNQ4ZhhsF74bomil-131" value="&quot;loads&quot;" style="curved=1;startArrow=none;endArrow=open;endSize=12;exitX=0;exitY=0.78;entryX=0.5;entryY=0;rounded=0;" edge="1" parent="WIyWlLk6GJQsqaUBKTNV-1" source="wH7noNQ4ZhhsF74bomil-0" target="wH7noNQ4ZhhsF74bomil-78">
          <mxGeometry relative="1" as="geometry">
            <Array as="points">
              <mxPoint x="356" y="343" />
            </Array>
          </mxGeometry>
        </mxCell>
        <mxCell id="wH7noNQ4ZhhsF74bomil-132" value="&quot;creates&quot;" style="curved=1;startArrow=none;endArrow=open;endSize=12;exitX=0;exitY=0.61;entryX=0.62;entryY=0;rounded=0;" edge="1" parent="WIyWlLk6GJQsqaUBKTNV-1" source="wH7noNQ4ZhhsF74bomil-12" target="wH7noNQ4ZhhsF74bomil-33">
          <mxGeometry relative="1" as="geometry">
            <Array as="points">
              <mxPoint x="405" y="988" />
            </Array>
          </mxGeometry>
        </mxCell>
        <mxCell id="wH7noNQ4ZhhsF74bomil-133" value="&quot;writes&quot;" style="curved=1;startArrow=none;endArrow=open;endSize=12;exitX=0;exitY=0.57;entryX=0.32;entryY=0;rounded=0;" edge="1" parent="WIyWlLk6GJQsqaUBKTNV-1" source="wH7noNQ4ZhhsF74bomil-12" target="wH7noNQ4ZhhsF74bomil-44">
          <mxGeometry relative="1" as="geometry">
            <Array as="points">
              <mxPoint x="62" y="988" />
              <mxPoint x="62" y="1322" />
            </Array>
          </mxGeometry>
        </mxCell>
        <mxCell id="wH7noNQ4ZhhsF74bomil-134" value="&quot;sends&quot;" style="curved=1;startArrow=none;endArrow=open;endSize=12;exitX=0;exitY=0.85;entryX=0;entryY=0.11;rounded=0;" edge="1" parent="WIyWlLk6GJQsqaUBKTNV-1" source="wH7noNQ4ZhhsF74bomil-12" target="wH7noNQ4ZhhsF74bomil-53">
          <mxGeometry relative="1" as="geometry">
            <Array as="points">
              <mxPoint x="742" y="988" />
            </Array>
          </mxGeometry>
        </mxCell>
        <mxCell id="wH7noNQ4ZhhsF74bomil-135" value="&quot;inherits&quot;" style="curved=1;startArrow=block;startSize=16;startFill=0;endArrow=none;exitX=1;exitY=0.89;entryX=0.23;entryY=0;rounded=0;" edge="1" parent="WIyWlLk6GJQsqaUBKTNV-1" source="wH7noNQ4ZhhsF74bomil-12" target="wH7noNQ4ZhhsF74bomil-24">
          <mxGeometry relative="1" as="geometry">
            <Array as="points">
              <mxPoint x="1052" y="988" />
            </Array>
          </mxGeometry>
        </mxCell>
        <mxCell id="wH7noNQ4ZhhsF74bomil-136" value="&quot;manages&quot;" style="curved=1;startArrow=none;endArrow=open;endSize=12;exitX=0.5;exitY=1;entryX=0.5;entryY=0;rounded=0;" edge="1" parent="WIyWlLk6GJQsqaUBKTNV-1" source="wH7noNQ4ZhhsF74bomil-24" target="wH7noNQ4ZhhsF74bomil-92">
          <mxGeometry relative="1" as="geometry">
            <Array as="points" />
          </mxGeometry>
        </mxCell>
        <mxCell id="wH7noNQ4ZhhsF74bomil-137" value="&quot;bans&quot;" style="curved=1;startArrow=none;endArrow=open;endSize=12;exitX=0.97;exitY=0;entryX=1;entryY=0.67;rounded=0;" edge="1" parent="WIyWlLk6GJQsqaUBKTNV-1" source="wH7noNQ4ZhhsF74bomil-24" target="wH7noNQ4ZhhsF74bomil-12">
          <mxGeometry relative="1" as="geometry">
            <Array as="points">
              <mxPoint x="1236" y="988" />
            </Array>
          </mxGeometry>
        </mxCell>
        <mxCell id="wH7noNQ4ZhhsF74bomil-138" value="&quot;1 * comments&quot;" style="curved=1;startArrow=diamondThin;startSize=14;startFill=0;endArrow=none;exitX=0;exitY=0.73;entryX=0.74;entryY=0;rounded=0;" edge="1" parent="WIyWlLk6GJQsqaUBKTNV-1" source="wH7noNQ4ZhhsF74bomil-33" target="wH7noNQ4ZhhsF74bomil-44">
          <mxGeometry relative="1" as="geometry">
            <Array as="points">
              <mxPoint x="147" y="1322" />
            </Array>
          </mxGeometry>
        </mxCell>
        <mxCell id="wH7noNQ4ZhhsF74bomil-139" value="&quot;has&quot;" style="curved=1;startArrow=none;endArrow=open;endSize=12;exitX=0.07;exitY=1;entryX=0.5;entryY=0;rounded=0;" edge="1" parent="WIyWlLk6GJQsqaUBKTNV-1" source="wH7noNQ4ZhhsF74bomil-33" target="wH7noNQ4ZhhsF74bomil-85">
          <mxGeometry relative="1" as="geometry">
            <Array as="points">
              <mxPoint x="287" y="1322" />
            </Array>
          </mxGeometry>
        </mxCell>
        <mxCell id="wH7noNQ4ZhhsF74bomil-140" value="&quot;uploads media&quot;" style="curved=1;startArrow=none;endArrow=open;endSize=12;exitX=1;exitY=0.69;entryX=0.5;entryY=0;rounded=0;" edge="1" parent="WIyWlLk6GJQsqaUBKTNV-1" source="wH7noNQ4ZhhsF74bomil-33" target="wH7noNQ4ZhhsF74bomil-100">
          <mxGeometry relative="1" as="geometry">
            <Array as="points">
              <mxPoint x="655" y="1322" />
            </Array>
          </mxGeometry>
        </mxCell>
        <mxCell id="wH7noNQ4ZhhsF74bomil-141" value="&quot;provides&quot;" style="curved=1;dashed=1;startArrow=none;endArrow=open;endSize=12;exitX=0.5;exitY=1;entryX=0.5;entryY=0;rounded=0;" edge="1" parent="WIyWlLk6GJQsqaUBKTNV-1" source="wH7noNQ4ZhhsF74bomil-71" target="wH7noNQ4ZhhsF74bomil-108">
          <mxGeometry relative="1" as="geometry">
            <Array as="points" />
          </mxGeometry>
        </mxCell>
        <mxCell id="wH7noNQ4ZhhsF74bomil-142" value="&quot;aggregates&quot;" style="curved=1;startArrow=diamondThin;startSize=14;startFill=0;endArrow=none;exitX=1;exitY=0.93;entryX=1;entryY=0.06;rounded=0;" edge="1" parent="WIyWlLk6GJQsqaUBKTNV-1" source="wH7noNQ4ZhhsF74bomil-78" target="wH7noNQ4ZhhsF74bomil-33">
          <mxGeometry relative="1" as="geometry">
            <Array as="points">
              <mxPoint x="501" y="988" />
            </Array>
          </mxGeometry>
        </mxCell>
        <mxCell id="wH7noNQ4ZhhsF74bomil-143" value="&quot;between&quot;" style="curved=1;startArrow=none;endArrow=open;endSize=12;exitX=0.82;exitY=0;entryX=0.76;entryY=1;rounded=0;" edge="1" parent="WIyWlLk6GJQsqaUBKTNV-1" source="wH7noNQ4ZhhsF74bomil-53" target="wH7noNQ4ZhhsF74bomil-12">
          <mxGeometry relative="1" as="geometry">
            <Array as="points">
              <mxPoint x="964" y="988" />
            </Array>
          </mxGeometry>
        </mxCell>
        <mxCell id="wH7noNQ4ZhhsF74bomil-144" value="&quot;sent to&quot;" style="curved=1;startArrow=none;endArrow=open;endSize=12;exitX=0.5;exitY=1;entryX=0.37;entryY=0;rounded=0;" edge="1" parent="WIyWlLk6GJQsqaUBKTNV-1" source="wH7noNQ4ZhhsF74bomil-62" target="wH7noNQ4ZhhsF74bomil-12">
          <mxGeometry relative="1" as="geometry">
            <Array as="points">
              <mxPoint x="876" y="631" />
            </Array>
          </mxGeometry>
        </mxCell>
        <mxCell id="wH7noNQ4ZhhsF74bomil-145" value="&quot;tracks&quot;" style="curved=1;startArrow=none;endArrow=open;endSize=12;exitX=0.5;exitY=1;entryX=1;entryY=0.19;rounded=0;" edge="1" parent="WIyWlLk6GJQsqaUBKTNV-1" source="wH7noNQ4ZhhsF74bomil-114" target="wH7noNQ4ZhhsF74bomil-12">
          <mxGeometry relative="1" as="geometry">
            <Array as="points">
              <mxPoint x="1091" y="631" />
            </Array>
          </mxGeometry>
        </mxCell>
        <mxCell id="wH7noNQ4ZhhsF74bomil-146" value="&quot;used by&quot;" style="curved=1;startArrow=none;endArrow=open;endSize=12;exitX=0.44;exitY=1;entryX=0.67;entryY=0;rounded=0;" edge="1" parent="WIyWlLk6GJQsqaUBKTNV-1" source="wH7noNQ4ZhhsF74bomil-122" target="wH7noNQ4ZhhsF74bomil-24">
          <mxGeometry relative="1" as="geometry">
            <Array as="points">
              <mxPoint x="1162" y="988" />
            </Array>
          </mxGeometry>
        </mxCell>
        <mxCell id="wH7noNQ4ZhhsF74bomil-147" value="&lt;font style=&quot;font-size: 18px;&quot;&gt;Social Media Platform&amp;nbsp;&lt;/font&gt;" style="text;html=1;align=center;verticalAlign=middle;whiteSpace=wrap;rounded=0;" vertex="1" parent="WIyWlLk6GJQsqaUBKTNV-1">
          <mxGeometry x="670" y="10" width="217" height="30" as="geometry" />
        </mxCell>
      </root>
    </mxGraphModel>
  </diagram>
</mxfile>
